name C:\Users\u0101727\Documents\MyRepositories\upper-imu-dc\OpenSim\subject0\MA\MA_Splines\angle_in_n6_dof6_1.mot
datacolumns 7
datarows 81
range 175.01000000 175.81000000
endheader 
time	clav_prot	clav_elev	scapula_abduction	scapula_elevation	scapula_upward_rot	scapula_winging	
        175.01000000	        -22.39390379	         -7.65248351	        -30.88730313	          1.12405674	         23.68359952	         -4.74553397	
        175.02000000	        -16.90593547	         -7.65248351	        -30.88730313	          1.12405674	         23.68359952	         -4.74553397	
        175.03000000	        -44.34577705	         -2.74924671	        -30.88730313	          1.12405674	         23.68359952	         -4.74553397	
        175.04000000	        -38.85780873	         -2.74924671	        -30.88730313	          1.12405674	         23.68359952	         -4.74553397	
        175.05000000	        -33.36984042	         -2.74924671	        -30.88730313	          1.12405674	         23.68359952	         -4.74553397	
        175.06000000	        -27.88187210	         -2.74924671	        -30.88730313	          1.12405674	         23.68359952	         -4.74553397	
        175.07000000	        -22.39390379	         -2.74924671	        -30.88730313	          1.12405674	         23.68359952	         -4.74553397	
        175.08000000	        -16.90593547	         -2.74924671	        -30.88730313	          1.12405674	         23.68359952	         -4.74553397	
        175.09000000	        -44.34577705	          2.15399008	        -30.88730313	          1.12405674	         23.68359952	         -4.74553397	
        175.10000000	        -38.85780873	          2.15399008	        -30.88730313	          1.12405674	         23.68359952	         -4.74553397	
        175.11000000	        -33.36984042	          2.15399008	        -30.88730313	          1.12405674	         23.68359952	         -4.74553397	
        175.12000000	        -27.88187210	          2.15399008	        -30.88730313	          1.12405674	         23.68359952	         -4.74553397	
        175.13000000	        -22.39390379	          2.15399008	        -30.88730313	          1.12405674	         23.68359952	         -4.74553397	
        175.14000000	        -16.90593547	          2.15399008	        -30.88730313	          1.12405674	         23.68359952	         -4.74553397	
        175.15000000	        -44.34577705	          7.05722688	        -30.88730313	          1.12405674	         23.68359952	         -4.74553397	
        175.16000000	        -38.85780873	          7.05722688	        -30.88730313	          1.12405674	         23.68359952	         -4.74553397	
        175.17000000	        -33.36984042	          7.05722688	        -30.88730313	          1.12405674	         23.68359952	         -4.74553397	
        175.18000000	        -27.88187210	          7.05722688	        -30.88730313	          1.12405674	         23.68359952	         -4.74553397	
        175.19000000	        -22.39390379	          7.05722688	        -30.88730313	          1.12405674	         23.68359952	         -4.74553397	
        175.20000000	        -16.90593547	          7.05722688	        -30.88730313	          1.12405674	         23.68359952	         -4.74553397	
        175.21000000	        -44.34577705	         11.96046367	        -30.88730313	          1.12405674	         23.68359952	         -4.74553397	
        175.22000000	        -38.85780873	         11.96046367	        -30.88730313	          1.12405674	         23.68359952	         -4.74553397	
        175.23000000	        -33.36984042	         11.96046367	        -30.88730313	          1.12405674	         23.68359952	         -4.74553397	
        175.24000000	        -27.88187210	         11.96046367	        -30.88730313	          1.12405674	         23.68359952	         -4.74553397	
        175.25000000	        -22.39390379	         11.96046367	        -30.88730313	          1.12405674	         23.68359952	         -4.74553397	
        175.26000000	        -16.90593547	         11.96046367	        -30.88730313	          1.12405674	         23.68359952	         -4.74553397	
        175.27000000	        -44.34577705	         16.86370047	        -30.88730313	          1.12405674	         23.68359952	         -4.74553397	
        175.28000000	        -38.85780873	         16.86370047	        -30.88730313	          1.12405674	         23.68359952	         -4.74553397	
        175.29000000	        -33.36984042	         16.86370047	        -30.88730313	          1.12405674	         23.68359952	         -4.74553397	
        175.30000000	        -27.88187210	         16.86370047	        -30.88730313	          1.12405674	         23.68359952	         -4.74553397	
        175.31000000	        -22.39390379	         16.86370047	        -30.88730313	          1.12405674	         23.68359952	         -4.74553397	
        175.32000000	        -16.90593547	         16.86370047	        -30.88730313	          1.12405674	         23.68359952	         -4.74553397	
        175.33000000	        -44.34577705	         -7.65248351	        -22.45226073	          1.12405674	         23.68359952	         -4.74553397	
        175.34000000	        -38.85780873	         -7.65248351	        -22.45226073	          1.12405674	         23.68359952	         -4.74553397	
        175.35000000	        -33.36984042	         -7.65248351	        -22.45226073	          1.12405674	         23.68359952	         -4.74553397	
        175.36000000	        -27.88187210	         -7.65248351	        -22.45226073	          1.12405674	         23.68359952	         -4.74553397	
        175.37000000	        -22.39390379	         -7.65248351	        -22.45226073	          1.12405674	         23.68359952	         -4.74553397	
        175.38000000	        -16.90593547	         -7.65248351	        -22.45226073	          1.12405674	         23.68359952	         -4.74553397	
        175.39000000	        -44.34577705	         -2.74924671	        -22.45226073	          1.12405674	         23.68359952	         -4.74553397	
        175.40000000	        -38.85780873	         -2.74924671	        -22.45226073	          1.12405674	         23.68359952	         -4.74553397	
        175.41000000	        -33.36984042	         -2.74924671	        -22.45226073	          1.12405674	         23.68359952	         -4.74553397	
        175.42000000	        -27.88187210	         -2.74924671	        -22.45226073	          1.12405674	         23.68359952	         -4.74553397	
        175.43000000	        -22.39390379	         -2.74924671	        -22.45226073	          1.12405674	         23.68359952	         -4.74553397	
        175.44000000	        -16.90593547	         -2.74924671	        -22.45226073	          1.12405674	         23.68359952	         -4.74553397	
        175.45000000	        -44.34577705	          2.15399008	        -22.45226073	          1.12405674	         23.68359952	         -4.74553397	
        175.46000000	        -38.85780873	          2.15399008	        -22.45226073	          1.12405674	         23.68359952	         -4.74553397	
        175.47000000	        -33.36984042	          2.15399008	        -22.45226073	          1.12405674	         23.68359952	         -4.74553397	
        175.48000000	        -27.88187210	          2.15399008	        -22.45226073	          1.12405674	         23.68359952	         -4.74553397	
        175.49000000	        -22.39390379	          2.15399008	        -22.45226073	          1.12405674	         23.68359952	         -4.74553397	
        175.50000000	        -16.90593547	          2.15399008	        -22.45226073	          1.12405674	         23.68359952	         -4.74553397	
        175.51000000	        -44.34577705	          7.05722688	        -22.45226073	          1.12405674	         23.68359952	         -4.74553397	
        175.52000000	        -38.85780873	          7.05722688	        -22.45226073	          1.12405674	         23.68359952	         -4.74553397	
        175.53000000	        -33.36984042	          7.05722688	        -22.45226073	          1.12405674	         23.68359952	         -4.74553397	
        175.54000000	        -27.88187210	          7.05722688	        -22.45226073	          1.12405674	         23.68359952	         -4.74553397	
        175.55000000	        -22.39390379	          7.05722688	        -22.45226073	          1.12405674	         23.68359952	         -4.74553397	
        175.56000000	        -16.90593547	          7.05722688	        -22.45226073	          1.12405674	         23.68359952	         -4.74553397	
        175.57000000	        -44.34577705	         11.96046367	        -22.45226073	          1.12405674	         23.68359952	         -4.74553397	
        175.58000000	        -38.85780873	         11.96046367	        -22.45226073	          1.12405674	         23.68359952	         -4.74553397	
        175.59000000	        -33.36984042	         11.96046367	        -22.45226073	          1.12405674	         23.68359952	         -4.74553397	
        175.60000000	        -27.88187210	         11.96046367	        -22.45226073	          1.12405674	         23.68359952	         -4.74553397	
        175.61000000	        -22.39390379	         11.96046367	        -22.45226073	          1.12405674	         23.68359952	         -4.74553397	
        175.62000000	        -16.90593547	         11.96046367	        -22.45226073	          1.12405674	         23.68359952	         -4.74553397	
        175.63000000	        -44.34577705	         16.86370047	        -22.45226073	          1.12405674	         23.68359952	         -4.74553397	
        175.64000000	        -38.85780873	         16.86370047	        -22.45226073	          1.12405674	         23.68359952	         -4.74553397	
        175.65000000	        -33.36984042	         16.86370047	        -22.45226073	          1.12405674	         23.68359952	         -4.74553397	
        175.66000000	        -27.88187210	         16.86370047	        -22.45226073	          1.12405674	         23.68359952	         -4.74553397	
        175.67000000	        -22.39390379	         16.86370047	        -22.45226073	          1.12405674	         23.68359952	         -4.74553397	
        175.68000000	        -16.90593547	         16.86370047	        -22.45226073	          1.12405674	         23.68359952	         -4.74553397	
        175.69000000	        -44.34577705	         -7.65248351	        -14.01721834	          1.12405674	         23.68359952	         -4.74553397	
        175.70000000	        -38.85780873	         -7.65248351	        -14.01721834	          1.12405674	         23.68359952	         -4.74553397	
        175.71000000	        -33.36984042	         -7.65248351	        -14.01721834	          1.12405674	         23.68359952	         -4.74553397	
        175.72000000	        -27.88187210	         -7.65248351	        -14.01721834	          1.12405674	         23.68359952	         -4.74553397	
        175.73000000	        -22.39390379	         -7.65248351	        -14.01721834	          1.12405674	         23.68359952	         -4.74553397	
        175.74000000	        -16.90593547	         -7.65248351	        -14.01721834	          1.12405674	         23.68359952	         -4.74553397	
        175.75000000	        -44.34577705	         -2.74924671	        -14.01721834	          1.12405674	         23.68359952	         -4.74553397	
        175.76000000	        -38.85780873	         -2.74924671	        -14.01721834	          1.12405674	         23.68359952	         -4.74553397	
        175.77000000	        -33.36984042	         -2.74924671	        -14.01721834	          1.12405674	         23.68359952	         -4.74553397	
        175.78000000	        -27.88187210	         -2.74924671	        -14.01721834	          1.12405674	         23.68359952	         -4.74553397	
        175.79000000	        -22.39390379	         -2.74924671	        -14.01721834	          1.12405674	         23.68359952	         -4.74553397	
        175.80000000	        -16.90593547	         -2.74924671	        -14.01721834	          1.12405674	         23.68359952	         -4.74553397	
        175.81000000	        -44.34577705	          2.15399008	        -14.01721834	          1.12405674	         23.68359952	         -4.74553397	
